<?xml version="1.0" encoding="utf-8"?>
<!-- Generator: Adobe Illustrator 24.2.0, SVG Export Plug-In . SVG Version: 6.00 Build 0)  -->
<svg version="1.1" xmlns="http://www.w3.org/2000/svg" xmlns:xlink="http://www.w3.org/1999/xlink" x="0px" y="0px"
	 viewBox="0 0 243 153" style="enable-background:new 0 0 243 153;" xml:space="preserve">
<style type="text/css">
	.st0{fill:#E6FF00;}
	.st1{fill:url(#SVGID_1_);}
	.st2{fill:#121622;}
	.st3{fill:#FFFFFF;}
	.st4{fill:#EA560D;}
	.st5{fill:#E30613;}
	.st6{fill:#F59E00;}
</style>
<g id="Background">
	<path class="st0" d="M0,9c0-4.97,4.03-9,9-9h225c4.97,0,9,4.03,9,9v135c0,4.97-4.03,9-9,9H9c-4.97,0-9-4.03-9-9V9z"/>
</g>
<g id="CardInfos">
	
		<radialGradient id="SVGID_1_" cx="474.4871" cy="-92.4534" r="0.2759" gradientTransform="matrix(172.627 51.3554 38.0056 -127.7528 -78375.0938 -36118.25)" gradientUnits="userSpaceOnUse">
		<stop  offset="1.248265e-07" style="stop-color:#EBEBEB"/>
		<stop  offset="1" style="stop-color:#ADADAD"/>
	</radialGradient>
	<path class="st1" d="M30.24,57.51h24.64c1.63,0,2.96,1.32,2.96,2.96v15.89c0,1.63-1.32,2.96-2.96,2.96H30.24
		c-1.63,0-2.96-1.32-2.96-2.96V60.47C27.28,58.83,28.61,57.51,30.24,57.51z"/>
	<g>
		<g>
			<path class="st2" d="M113.98,62.79c0.75,0,1.33,0.58,1.33,1.32c0,0.76-0.58,1.34-1.34,1.34c-0.76,0-1.36-0.58-1.36-1.34
				C112.61,63.38,113.21,62.79,113.98,62.79L113.98,62.79z M113.96,63.03c-0.6,0-1.06,0.49-1.06,1.09c0,0.62,0.46,1.1,1.07,1.1
				c0.59,0.01,1.04-0.48,1.04-1.09C115.02,63.52,114.57,63.03,113.96,63.03L113.96,63.03z M113.73,64.85h-0.26v-1.39
				c0.14-0.02,0.29-0.04,0.48-0.04c0.23,0,0.35,0.04,0.43,0.11c0.08,0.06,0.14,0.17,0.14,0.3c0,0.17-0.12,0.27-0.27,0.32v0.02
				c0.12,0.05,0.18,0.16,0.23,0.34c0.04,0.21,0.07,0.29,0.11,0.34h-0.27c-0.04-0.05-0.07-0.17-0.12-0.36
				c-0.03-0.16-0.12-0.23-0.32-0.23h-0.17V64.85z M113.73,64.07h0.18c0.18,0,0.36-0.06,0.36-0.22c0-0.13-0.09-0.23-0.33-0.23
				c-0.1,0-0.16,0.01-0.2,0.02V64.07z"/>
		</g>
		<path class="st2" d="M73.98,58.32v20.22h-4.43V58.32H73.98z"/>
		<path class="st2" d="M76.34,66.05h4.43v6.67c0,0.88,0.16,1.55,0.48,2.01c0.32,0.46,0.9,0.7,1.74,0.7c0.84,0,1.43-0.23,1.74-0.7
			c0.32-0.46,0.47-1.13,0.47-2.01v-6.67h4.43v7.53c0,3.59-2.22,5.38-6.65,5.38c-4.43,0-6.65-1.79-6.65-5.38V66.05z"/>
		<path class="st2" d="M96.42,58.32v20.22h-4.43V58.32H96.42z"/>
		<polygon class="st2" points="107.44,78.56 103.27,78.56 99.09,78.56 99.09,74.39 99.09,70.21 99.09,66.03 103.27,66.03 
			107.44,66.03 107.44,70.21 103.27,70.21 103.27,74.39 107.44,74.39 107.44,70.21 111.62,70.21 111.62,74.39 111.62,78.56 		"/>
		<g>
			<path class="st2" d="M100.6,83.68c0.38,0,0.71,0.14,0.98,0.42c0.27,0.28,0.41,0.62,0.41,1.02c0,0.4-0.14,0.74-0.41,1.02
				c-0.27,0.28-0.6,0.42-0.98,0.42c-0.45,0-0.8-0.18-1.04-0.54v0.47h-0.48v-3.84h0.48v1.57C99.8,83.86,100.15,83.68,100.6,83.68z
				 M100.54,86.11c0.27,0,0.5-0.09,0.69-0.28c0.19-0.19,0.28-0.42,0.28-0.7c0-0.28-0.09-0.51-0.28-0.7
				c-0.19-0.19-0.42-0.28-0.69-0.28c-0.28,0-0.51,0.09-0.7,0.28c-0.19,0.19-0.28,0.42-0.28,0.7c0,0.28,0.09,0.51,0.28,0.7
				C100.03,86.01,100.26,86.11,100.54,86.11z"/>
			<path class="st2" d="M104.89,83.76h0.48v2.74h-0.48v-0.47c-0.24,0.36-0.58,0.54-1.04,0.54c-0.38,0-0.71-0.14-0.98-0.42
				c-0.27-0.28-0.41-0.62-0.41-1.02c0-0.4,0.14-0.74,0.41-1.02c0.27-0.28,0.6-0.42,0.98-0.42c0.45,0,0.8,0.18,1.04,0.54V83.76z
				 M103.91,86.11c0.28,0,0.51-0.09,0.7-0.28c0.19-0.19,0.28-0.42,0.28-0.7c0-0.28-0.09-0.51-0.28-0.7
				c-0.19-0.19-0.42-0.28-0.7-0.28c-0.27,0-0.5,0.09-0.69,0.28c-0.19,0.19-0.28,0.42-0.28,0.7c0,0.28,0.09,0.51,0.28,0.7
				S103.64,86.11,103.91,86.11z"/>
			<path class="st2" d="M107.51,83.68c0.32,0,0.58,0.1,0.77,0.3c0.19,0.2,0.29,0.48,0.29,0.82v1.68h-0.48v-1.66
				c0-0.22-0.06-0.4-0.18-0.52c-0.12-0.12-0.29-0.18-0.5-0.18c-0.24,0-0.43,0.07-0.58,0.22c-0.15,0.15-0.22,0.38-0.22,0.68v1.45
				h-0.48v-2.74h0.48v0.39C106.82,83.84,107.12,83.68,107.51,83.68z"/>
			<path class="st2" d="M111.62,86.5h-0.59l-1.25-1.3v1.3h-0.48v-3.84h0.48v2.31l1.18-1.21h0.61l-1.31,1.33L111.62,86.5z"/>
		</g>
	</g>
	<g>
		<g>
			<g>
				<g>
					<path class="st3" d="M193.85,18.64v6.3h-0.97v-0.65c-0.34,0.48-0.87,0.77-1.58,0.77c-1.22,0-2.24-1.04-2.24-2.37
						c0-1.34,1.02-2.37,2.24-2.37c0.7,0,1.23,0.29,1.58,0.76v-2.44H193.85z M192.88,22.69c0-0.84-0.61-1.44-1.42-1.44
						s-1.42,0.6-1.42,1.44c0,0.84,0.61,1.44,1.42,1.44S192.88,23.53,192.88,22.69z"/>
					<path class="st3" d="M197.19,24.17c0.54,0,0.95-0.24,1.16-0.56l0.8,0.47c-0.41,0.61-1.09,0.98-1.97,0.98
						c-1.49,0-2.45-1.02-2.45-2.37c0-1.33,0.96-2.37,2.38-2.37c1.34,0,2.26,1.08,2.26,2.38c0,0.13-0.02,0.28-0.04,0.4h-3.58
						C195.9,23.81,196.47,24.17,197.19,24.17z M198.38,22.31c-0.13-0.77-0.7-1.11-1.29-1.11c-0.73,0-1.22,0.43-1.36,1.11H198.38z"/>
					<path class="st3" d="M205.01,22.69c0,1.33-1.02,2.37-2.24,2.37c-0.7,0-1.23-0.29-1.58-0.77v0.65h-0.97v-6.3h0.97v2.44
						c0.34-0.47,0.87-0.76,1.58-0.76C203.99,20.32,205.01,21.35,205.01,22.69z M204.04,22.69c0-0.84-0.61-1.44-1.42-1.44
						s-1.42,0.6-1.42,1.44c0,0.84,0.61,1.44,1.42,1.44S204.04,23.53,204.04,22.69z"/>
					<path class="st3" d="M205.75,19.14c0-0.34,0.28-0.62,0.62-0.62c0.34,0,0.62,0.28,0.62,0.62c0,0.33-0.28,0.62-0.62,0.62
						C206.03,19.76,205.75,19.48,205.75,19.14z M205.89,20.44h0.97v4.5h-0.97V20.44z"/>
					<path class="st3" d="M209.38,21.37v2.16c0,0.58,0.38,0.57,1.12,0.53v0.87c-1.5,0.18-2.09-0.23-2.09-1.4v-2.16h-0.83v-0.94h0.83
						v-0.97l0.97-0.29v1.26h1.12v0.94H209.38z"/>
				</g>
			</g>
		</g>
		<g>
			<path class="st3" d="M216.61,19.41c0.23,0.32,0.42,0.67,0.55,1.05c0.13,0.38,0.2,0.78,0.2,1.21c0,0.43-0.07,0.83-0.2,1.21
				c-0.12,0.38-0.31,0.73-0.55,1.05c-0.32,0.43-0.23,1.04,0.2,1.36c0.43,0.32,1.04,0.23,1.36-0.2c0.35-0.48,0.64-1.01,0.83-1.59
				c0.2-0.57,0.3-1.19,0.3-1.83c0-0.64-0.11-1.25-0.3-1.83c-0.19-0.58-0.48-1.11-0.83-1.59c-0.32-0.43-0.93-0.52-1.36-0.2
				C216.38,18.37,216.29,18.98,216.61,19.41 M219.93,17.6c0.73,1.18,1.15,2.57,1.15,4.07c0,1.49-0.42,2.88-1.15,4.07
				c-0.28,0.46-0.14,1.05,0.32,1.33c0.46,0.28,1.06,0.14,1.34-0.32c0.91-1.48,1.44-3.22,1.44-5.09c0-1.86-0.53-3.61-1.44-5.09
				c-0.28-0.45-0.88-0.6-1.34-0.32C219.79,16.54,219.65,17.14,219.93,17.6 M223.46,15.75c1.02,1.74,1.59,3.75,1.59,5.91
				c0,2.16-0.58,4.18-1.59,5.91c-0.27,0.46-0.11,1.06,0.35,1.33c0.47,0.27,1.06,0.11,1.33-0.35c1.18-2.02,1.86-4.38,1.86-6.89
				c0-2.51-0.68-4.87-1.86-6.89c-0.27-0.46-0.86-0.62-1.33-0.35C223.35,14.69,223.19,15.29,223.46,15.75 M226.98,13.9
				c1.3,2.29,2.05,4.94,2.05,7.76c0,2.83-0.75,5.47-2.05,7.76c-0.26,0.47-0.1,1.06,0.36,1.32c0.47,0.26,1.06,0.1,1.33-0.36
				c1.46-2.57,2.3-5.55,2.3-8.72c0-3.17-0.84-6.15-2.3-8.72c-0.27-0.47-0.86-0.63-1.33-0.36C226.88,12.85,226.71,13.44,226.98,13.9"
				/>
		</g>
	</g>
	<g id="XMLID_20_">
		<rect x="199.06" y="113.3" class="st4" width="13.8" height="24.79"/>
		<path id="XMLID_24_" class="st5" d="M199.94,125.69c0-5.03,2.35-9.51,6.02-12.4c-2.68-2.11-6.07-3.37-9.74-3.37
			c-8.71,0-15.77,7.06-15.77,15.77c0,8.71,7.06,15.77,15.77,15.77c3.68,0,7.06-1.26,9.74-3.37
			C202.29,135.2,199.94,130.72,199.94,125.69z"/>
		<path class="st6" d="M229.96,135.46v-0.51h0.2v-0.1h-0.52v0.1h0.2v0.51H229.96z M230.98,135.46v-0.61h-0.16l-0.18,0.42l-0.18-0.42
			h-0.16v0.61h0.11V135l0.17,0.4h0.12l0.17-0.4v0.46H230.98z"/>
		<path class="st6" d="M231.47,125.69c0,8.71-7.06,15.77-15.77,15.77c-3.68,0-7.06-1.26-9.74-3.37c3.67-2.89,6.02-7.37,6.02-12.4
			c0-5.03-2.35-9.51-6.02-12.4c2.68-2.11,6.07-3.37,9.74-3.37C224.41,109.93,231.47,116.98,231.47,125.69z"/>
	</g>
	<path class="st3" d="M48.66,65.85h9.2v-0.5h-9.2c-1.01,0-1.84,0.83-1.84,1.84v7.67c0,0.74-0.6,1.34-1.34,1.34h-5.4
		c-0.74,0-1.34-0.6-1.34-1.34V62.42c0-0.74,0.6-1.34,1.34-1.34h5.4c1.01,0,1.84-0.83,1.84-1.84v-1.7h-0.5v1.7
		c0,0.74-0.6,1.34-1.34,1.34h-5.4c-1.01,0-1.84,0.83-1.84,1.84v2.98H27.5v0.5h10.74v6.23H27.5v0.5h10.74v2.23
		c0,1.01,0.83,1.84,1.84,1.84h5.4c1.01,0,1.84-0.83,1.84-1.84v-2.23h10.46v-0.5H47.32v-4.94C47.32,66.46,47.92,65.85,48.66,65.85z"
		/>
	<g>
		<path class="st2" d="M16.9,138.3c-0.78,0-1.45-0.18-2.01-0.55c-0.56-0.37-0.95-0.87-1.17-1.51l0.96-0.55
			c0.33,1.02,1.08,1.52,2.24,1.52c0.58,0,1.02-0.12,1.32-0.35c0.3-0.24,0.46-0.55,0.46-0.94c0-0.4-0.15-0.7-0.46-0.9
			c-0.3-0.2-0.81-0.41-1.52-0.64c-0.35-0.12-0.62-0.21-0.8-0.28c-0.19-0.06-0.42-0.17-0.69-0.31c-0.28-0.14-0.48-0.28-0.62-0.43
			c-0.14-0.15-0.26-0.34-0.37-0.58c-0.11-0.24-0.16-0.51-0.16-0.82c0-0.73,0.26-1.31,0.77-1.73c0.51-0.43,1.14-0.64,1.87-0.64
			c0.66,0,1.24,0.17,1.73,0.5s0.86,0.78,1.11,1.33l-0.94,0.54c-0.36-0.86-1-1.3-1.91-1.3c-0.46,0-0.82,0.11-1.1,0.33
			c-0.28,0.22-0.42,0.53-0.42,0.91c0,0.37,0.13,0.65,0.4,0.84c0.26,0.19,0.72,0.39,1.37,0.6c0.23,0.08,0.39,0.14,0.49,0.17
			c0.1,0.04,0.25,0.09,0.45,0.16s0.35,0.13,0.45,0.18c0.1,0.05,0.23,0.12,0.39,0.2c0.16,0.09,0.29,0.17,0.37,0.25
			c0.08,0.08,0.17,0.18,0.28,0.29c0.11,0.12,0.19,0.23,0.23,0.35c0.05,0.12,0.09,0.26,0.13,0.42s0.05,0.32,0.05,0.5
			c0,0.74-0.27,1.32-0.8,1.76C18.47,138.08,17.77,138.3,16.9,138.3z"/>
		<path class="st2" d="M21.89,135.62c0.1,0.54,0.35,0.95,0.74,1.25c0.39,0.3,0.87,0.44,1.43,0.44c0.79,0,1.37-0.29,1.73-0.88
			l0.89,0.5c-0.58,0.9-1.46,1.36-2.64,1.36c-0.95,0-1.73-0.3-2.32-0.89c-0.6-0.6-0.89-1.35-0.89-2.26c0-0.9,0.29-1.66,0.88-2.26
			c0.58-0.6,1.34-0.9,2.27-0.9c0.88,0,1.6,0.31,2.15,0.93s0.83,1.37,0.83,2.24c0,0.15-0.01,0.31-0.04,0.47H21.89z M23.97,132.97
			c-0.56,0-1.02,0.16-1.39,0.47c-0.37,0.32-0.6,0.74-0.68,1.27h4.01c-0.09-0.57-0.31-1-0.67-1.3
			C24.87,133.12,24.45,132.97,23.97,132.97z"/>
		<path class="st2" d="M31.47,131.99c0.84,0,1.56,0.31,2.15,0.92c0.59,0.61,0.89,1.36,0.89,2.24s-0.3,1.63-0.89,2.24
			c-0.59,0.61-1.31,0.92-2.15,0.92c-0.99,0-1.75-0.4-2.27-1.19v1.03h-1.04v-8.4h1.04v3.43C29.72,132.38,30.48,131.99,31.47,131.99z
			 M31.34,137.29c0.6,0,1.1-0.21,1.51-0.62c0.41-0.41,0.61-0.92,0.61-1.53c0-0.61-0.2-1.12-0.61-1.53
			c-0.41-0.41-0.91-0.62-1.51-0.62c-0.61,0-1.12,0.21-1.52,0.62c-0.41,0.41-0.61,0.92-0.61,1.53c0,0.61,0.2,1.12,0.61,1.53
			C30.22,137.09,30.73,137.29,31.34,137.29z"/>
		<path class="st2" d="M40.72,132.14h1.04v6h-1.04v-1.03c-0.52,0.79-1.28,1.19-2.27,1.19c-0.84,0-1.56-0.31-2.15-0.92
			c-0.59-0.61-0.89-1.36-0.89-2.24s0.3-1.63,0.89-2.24c0.59-0.61,1.31-0.92,2.15-0.92c0.99,0,1.75,0.4,2.27,1.19V132.14z
			 M38.59,137.29c0.61,0,1.12-0.21,1.52-0.62c0.41-0.41,0.61-0.92,0.61-1.53c0-0.61-0.2-1.12-0.61-1.53
			c-0.41-0.41-0.92-0.62-1.52-0.62c-0.6,0-1.1,0.21-1.51,0.62c-0.41,0.41-0.61,0.92-0.61,1.53c0,0.61,0.2,1.12,0.61,1.53
			C37.48,137.09,37.99,137.29,38.59,137.29z"/>
		<path class="st2" d="M44.24,133.75c0,0.23,0.12,0.41,0.35,0.54c0.24,0.14,0.52,0.25,0.84,0.35c0.33,0.1,0.65,0.19,0.98,0.29
			c0.33,0.1,0.61,0.28,0.84,0.54c0.23,0.27,0.34,0.61,0.34,1.03c0,0.54-0.21,0.98-0.63,1.31s-0.96,0.49-1.61,0.49
			c-0.58,0-1.08-0.13-1.5-0.38c-0.42-0.26-0.71-0.6-0.89-1.02l0.9-0.52c0.1,0.29,0.28,0.52,0.54,0.68c0.26,0.17,0.58,0.25,0.95,0.25
			c0.34,0,0.63-0.07,0.85-0.2c0.22-0.13,0.34-0.34,0.34-0.62c0-0.23-0.12-0.42-0.35-0.56c-0.23-0.14-0.51-0.26-0.84-0.36
			c-0.33-0.1-0.65-0.2-0.98-0.29c-0.33-0.1-0.61-0.28-0.84-0.53s-0.35-0.58-0.35-0.98c0-0.52,0.2-0.95,0.61-1.28
			c0.4-0.34,0.91-0.5,1.52-0.5c0.49,0,0.92,0.11,1.3,0.33c0.38,0.22,0.67,0.53,0.86,0.92l-0.88,0.49c-0.22-0.51-0.64-0.77-1.28-0.77
			c-0.3,0-0.55,0.07-0.76,0.21S44.24,133.5,44.24,133.75z"/>
	</g>
</g>
</svg>
