<?xml version="1.0" encoding="utf-8"?>
<!-- Generator: Adobe Illustrator 24.2.0, SVG Export Plug-In . SVG Version: 6.00 Build 0)  -->
<svg version="1.1" id="Layer_1" xmlns="http://www.w3.org/2000/svg" xmlns:xlink="http://www.w3.org/1999/xlink" x="0px" y="0px"
	 viewBox="0 0 42 42" style="enable-background:new 0 0 42 42;" xml:space="preserve">
<desc>Created with Sketch.</desc>
<g id="Symbols">
	<g id="Icons_x2F_Social_x2F_Instagram" transform="translate(-4.000000, -4.000000)">
		<g id="Mask">
			<path fill="#ffffff" id="path-1_1_" d="M25,14.58c-0.36,0-0.71,0.02-1.06,0.05c-0.35,0.04-0.69,0.09-1.03,0.16c-0.34,0.07-0.67,0.16-1,0.26
				c-0.33,0.1-0.64,0.22-0.96,0.35c-0.31,0.13-0.62,0.28-0.91,0.44c-0.3,0.16-0.58,0.34-0.86,0.52s-0.55,0.39-0.8,0.6
				s-0.5,0.44-0.74,0.67s-0.46,0.48-0.67,0.74c-0.21,0.26-0.41,0.53-0.6,0.8c-0.19,0.28-0.36,0.56-0.52,0.86s-0.31,0.6-0.44,0.91
				c-0.13,0.31-0.25,0.63-0.35,0.96c-0.1,0.33-0.19,0.66-0.26,1c-0.07,0.34-0.12,0.68-0.16,1.03s-0.05,0.7-0.05,1.06
				s0.02,0.71,0.05,1.06c0.04,0.35,0.09,0.69,0.16,1.03c0.07,0.34,0.16,0.67,0.26,1c0.1,0.33,0.22,0.64,0.35,0.96
				c0.13,0.31,0.28,0.61,0.44,0.91c0.16,0.3,0.34,0.58,0.52,0.86c0.19,0.28,0.39,0.55,0.6,0.8c0.21,0.26,0.44,0.5,0.67,0.74
				s0.48,0.46,0.74,0.67s0.53,0.41,0.8,0.6s0.56,0.36,0.86,0.52c0.3,0.16,0.6,0.31,0.91,0.44c0.31,0.13,0.63,0.25,0.96,0.35
				c0.33,0.1,0.66,0.19,1,0.26s0.68,0.12,1.03,0.16c0.35,0.04,0.7,0.05,1.06,0.05s0.71-0.02,1.06-0.05
				c0.35-0.04,0.69-0.09,1.03-0.16s0.67-0.16,1-0.26s0.64-0.22,0.96-0.35c0.31-0.13,0.61-0.28,0.91-0.44
				c0.3-0.16,0.58-0.34,0.86-0.52c0.28-0.19,0.54-0.39,0.8-0.6c0.26-0.21,0.5-0.44,0.74-0.67s0.46-0.48,0.67-0.74
				c0.21-0.26,0.41-0.53,0.6-0.8s0.36-0.56,0.52-0.86c0.16-0.3,0.31-0.6,0.44-0.91c0.13-0.31,0.25-0.63,0.35-0.96
				c0.1-0.33,0.19-0.66,0.26-1c0.07-0.34,0.12-0.68,0.16-1.03c0.04-0.35,0.05-0.7,0.05-1.06s-0.02-0.71-0.05-1.06
				s-0.09-0.69-0.16-1.03c-0.07-0.34-0.16-0.67-0.26-1c-0.1-0.33-0.22-0.64-0.35-0.96c-0.13-0.31-0.28-0.61-0.44-0.91
				s-0.34-0.58-0.52-0.86s-0.39-0.54-0.6-0.8c-0.21-0.26-0.44-0.5-0.67-0.74s-0.48-0.46-0.74-0.67c-0.26-0.21-0.53-0.41-0.8-0.6
				c-0.28-0.19-0.56-0.36-0.86-0.52c-0.3-0.16-0.6-0.31-0.91-0.44c-0.31-0.13-0.63-0.25-0.96-0.35c-0.33-0.1-0.66-0.19-1-0.26
				c-0.34-0.07-0.68-0.12-1.03-0.16C25.71,14.6,25.36,14.58,25,14.58z M25,18.18c0.24,0,0.47,0.01,0.7,0.03
				c0.23,0.02,0.46,0.06,0.68,0.1c0.22,0.05,0.44,0.1,0.66,0.17c0.21,0.07,0.42,0.14,0.63,0.23s0.4,0.18,0.6,0.29
				c0.19,0.1,0.38,0.22,0.56,0.34c0.18,0.12,0.36,0.25,0.52,0.39c0.17,0.14,0.33,0.29,0.48,0.44c0.15,0.15,0.3,0.32,0.44,0.48
				c0.14,0.17,0.27,0.34,0.39,0.52c0.12,0.18,0.24,0.37,0.34,0.56s0.2,0.39,0.29,0.6c0.09,0.2,0.16,0.41,0.23,0.63
				c0.07,0.21,0.12,0.43,0.17,0.66c0.05,0.22,0.08,0.45,0.1,0.68c0.02,0.23,0.03,0.46,0.03,0.7s-0.01,0.47-0.03,0.7
				s-0.06,0.46-0.1,0.68c-0.05,0.22-0.1,0.44-0.17,0.66c-0.07,0.21-0.14,0.42-0.23,0.63s-0.18,0.4-0.29,0.6s-0.22,0.38-0.34,0.56
				c-0.12,0.18-0.25,0.36-0.39,0.52s-0.29,0.33-0.44,0.48c-0.15,0.15-0.32,0.3-0.48,0.44c-0.17,0.14-0.34,0.27-0.52,0.39
				c-0.18,0.12-0.37,0.24-0.56,0.34c-0.19,0.1-0.39,0.2-0.6,0.29c-0.2,0.09-0.41,0.16-0.63,0.23c-0.21,0.07-0.43,0.12-0.66,0.17
				c-0.22,0.05-0.45,0.08-0.68,0.1c-0.23,0.02-0.46,0.03-0.7,0.03s-0.47-0.01-0.7-0.03c-0.23-0.02-0.46-0.06-0.68-0.1
				c-0.22-0.05-0.44-0.1-0.66-0.17c-0.21-0.07-0.42-0.14-0.63-0.23c-0.2-0.09-0.4-0.18-0.6-0.29c-0.19-0.1-0.38-0.22-0.56-0.34
				c-0.18-0.12-0.36-0.25-0.52-0.39c-0.17-0.14-0.33-0.29-0.48-0.44s-0.3-0.32-0.44-0.48c-0.14-0.17-0.27-0.34-0.39-0.52
				c-0.12-0.18-0.24-0.37-0.34-0.56s-0.2-0.39-0.29-0.6s-0.16-0.41-0.23-0.63c-0.07-0.21-0.12-0.43-0.17-0.66
				c-0.05-0.22-0.08-0.45-0.1-0.68c-0.02-0.23-0.03-0.46-0.03-0.7s0.01-0.47,0.03-0.7c0.02-0.23,0.06-0.46,0.1-0.68
				c0.05-0.22,0.1-0.44,0.17-0.66s0.14-0.42,0.23-0.63c0.09-0.2,0.18-0.4,0.29-0.6s0.22-0.38,0.34-0.56
				c0.12-0.18,0.25-0.36,0.39-0.52c0.14-0.17,0.29-0.33,0.44-0.48s0.32-0.3,0.48-0.44c0.17-0.14,0.34-0.27,0.52-0.39
				c0.18-0.12,0.37-0.24,0.56-0.34c0.19-0.1,0.39-0.2,0.6-0.29c0.2-0.09,0.41-0.16,0.63-0.23c0.21-0.07,0.43-0.12,0.66-0.17
				c0.22-0.05,0.45-0.08,0.68-0.1C24.53,18.19,24.76,18.18,25,18.18z M35.42,12.5c0.05,0,0.1,0,0.15,0.01
				c0.07,0,0.14,0.01,0.21,0.03c0.07,0.01,0.14,0.03,0.2,0.05c0.07,0.02,0.13,0.04,0.2,0.07c0.06,0.03,0.13,0.05,0.19,0.09
				c0.06,0.03,0.12,0.07,0.18,0.1c0.06,0.04,0.12,0.08,0.17,0.12c0.05,0.04,0.11,0.09,0.16,0.14c0.05,0.05,0.1,0.1,0.14,0.15
				c0.04,0.05,0.09,0.11,0.13,0.17c0.04,0.06,0.08,0.12,0.11,0.18c0.03,0.06,0.06,0.12,0.09,0.19c0.03,0.06,0.05,0.13,0.07,0.2
				c0.02,0.07,0.04,0.13,0.05,0.2c0.01,0.07,0.02,0.14,0.03,0.21c0.01,0.07,0.01,0.14,0.01,0.21c0,0.05,0,0.1-0.01,0.15
				c0,0.07-0.01,0.14-0.03,0.21c-0.01,0.07-0.03,0.14-0.05,0.2c-0.02,0.07-0.04,0.13-0.07,0.2c-0.03,0.06-0.05,0.13-0.09,0.19
				c-0.03,0.06-0.07,0.12-0.1,0.18c-0.04,0.06-0.08,0.11-0.12,0.17c-0.04,0.05-0.09,0.11-0.14,0.16c-0.05,0.05-0.1,0.1-0.15,0.14
				c-0.05,0.04-0.11,0.09-0.17,0.13c-0.06,0.04-0.12,0.08-0.18,0.11c-0.06,0.03-0.12,0.06-0.19,0.09c-0.06,0.03-0.13,0.05-0.2,0.07
				c-0.07,0.02-0.13,0.04-0.2,0.05s-0.14,0.02-0.21,0.03c-0.07,0.01-0.14,0.01-0.21,0.01c-0.05,0-0.1,0-0.15-0.01
				c-0.07,0-0.14-0.01-0.21-0.03c-0.07-0.01-0.14-0.03-0.2-0.05c-0.07-0.02-0.13-0.04-0.2-0.07c-0.06-0.03-0.13-0.05-0.19-0.09
				c-0.06-0.03-0.12-0.07-0.18-0.1c-0.06-0.04-0.12-0.08-0.17-0.12c-0.05-0.04-0.11-0.09-0.16-0.14c-0.05-0.05-0.1-0.1-0.14-0.15
				c-0.04-0.05-0.09-0.11-0.13-0.17c-0.04-0.06-0.08-0.12-0.11-0.18c-0.03-0.06-0.06-0.12-0.09-0.19c-0.03-0.06-0.05-0.13-0.07-0.2
				c-0.02-0.07-0.04-0.13-0.05-0.2c-0.01-0.07-0.02-0.14-0.03-0.21c-0.01-0.07-0.01-0.14-0.01-0.21c0-0.05,0-0.1,0.01-0.15
				c0-0.07,0.01-0.14,0.03-0.21c0.01-0.07,0.03-0.14,0.05-0.2c0.02-0.07,0.04-0.13,0.07-0.2c0.03-0.06,0.05-0.13,0.09-0.19
				c0.03-0.06,0.07-0.12,0.1-0.18c0.04-0.06,0.08-0.11,0.12-0.17c0.04-0.05,0.09-0.11,0.14-0.16c0.05-0.05,0.1-0.1,0.15-0.14
				c0.05-0.04,0.11-0.09,0.17-0.13c0.06-0.04,0.12-0.08,0.18-0.11c0.06-0.03,0.12-0.06,0.19-0.09c0.06-0.03,0.13-0.05,0.2-0.07
				c0.07-0.02,0.13-0.04,0.2-0.05c0.07-0.01,0.14-0.02,0.21-0.03C35.28,12.5,35.35,12.5,35.42,12.5z M23,4.17
				c-1.16,0-2.19,0-3.12,0.02c-0.93,0.01-1.75,0.03-2.49,0.07c-0.74,0.03-1.39,0.07-1.98,0.13c-0.29,0.03-0.57,0.06-0.83,0.09
				s-0.51,0.07-0.74,0.11c-0.24,0.04-0.46,0.08-0.67,0.13s-0.42,0.1-0.62,0.15c-0.2,0.05-0.39,0.11-0.57,0.18
				c-0.19,0.06-0.37,0.13-0.55,0.2c-0.36,0.14-0.71,0.3-1.07,0.48C10.08,5.86,9.82,6,9.58,6.14c-0.24,0.15-0.47,0.3-0.7,0.47
				C8.65,6.79,8.43,6.97,8.21,7.18c-0.22,0.2-0.45,0.43-0.69,0.68c-0.3,0.31-0.56,0.61-0.79,0.9C6.61,8.9,6.5,9.04,6.4,9.18
				S6.2,9.47,6.11,9.62s-0.18,0.29-0.26,0.45c-0.08,0.15-0.16,0.31-0.24,0.47c-0.15,0.33-0.29,0.68-0.44,1.07
				c-0.1,0.29-0.2,0.58-0.28,0.88c-0.08,0.3-0.16,0.62-0.23,0.97c-0.07,0.34-0.13,0.71-0.18,1.12c-0.05,0.41-0.1,0.85-0.13,1.35
				c-0.04,0.5-0.07,1.04-0.09,1.65c-0.03,0.61-0.05,1.28-0.06,2.02c-0.02,0.74-0.03,1.56-0.03,2.46c-0.01,0.9-0.01,1.89-0.01,2.97
				c0,1.63,0.01,3.06,0.03,4.32s0.05,2.35,0.09,3.27c0.02,0.46,0.04,0.89,0.07,1.28c0.02,0.39,0.05,0.74,0.08,1.06
				c0.03,0.32,0.06,0.6,0.1,0.86s0.07,0.47,0.12,0.66c0.09,0.4,0.19,0.78,0.3,1.15c0.11,0.37,0.24,0.73,0.38,1.08
				c0.14,0.35,0.29,0.68,0.46,1c0.17,0.32,0.34,0.63,0.54,0.93c0.19,0.3,0.4,0.58,0.62,0.85c0.22,0.27,0.45,0.53,0.7,0.78
				c0.25,0.25,0.51,0.49,0.78,0.71c0.27,0.23,0.56,0.44,0.86,0.64c0.28,0.19,0.55,0.36,0.83,0.51c0.28,0.16,0.55,0.3,0.84,0.43
				s0.58,0.24,0.89,0.35c0.31,0.1,0.63,0.2,0.96,0.28c0.34,0.08,0.69,0.15,1.07,0.22s0.78,0.12,1.21,0.16s0.89,0.08,1.39,0.12
				c0.49,0.03,1.02,0.06,1.59,0.08c0.88,0.03,2.21,0.05,3.74,0.06c1.53,0.01,3.27,0,4.96-0.01c1.69-0.01,3.34-0.04,4.7-0.07
				c0.68-0.02,1.28-0.03,1.79-0.05c0.5-0.02,0.9-0.04,1.16-0.06c0.25-0.02,0.49-0.04,0.73-0.07c0.24-0.03,0.47-0.06,0.69-0.1
				c0.23-0.04,0.45-0.08,0.67-0.12c0.22-0.05,0.43-0.1,0.64-0.15c0.21-0.05,0.42-0.11,0.62-0.18c0.21-0.06,0.41-0.13,0.61-0.21
				s0.4-0.16,0.6-0.24s0.4-0.18,0.6-0.27c0.31-0.15,0.56-0.27,0.78-0.39c0.22-0.12,0.41-0.24,0.59-0.38
				c0.19-0.14,0.37-0.29,0.59-0.49c0.21-0.2,0.46-0.43,0.76-0.73c0.26-0.26,0.49-0.49,0.68-0.7c0.19-0.21,0.35-0.4,0.49-0.58
				c0.14-0.18,0.26-0.35,0.38-0.54c0.11-0.18,0.22-0.37,0.32-0.58c0.16-0.31,0.3-0.6,0.43-0.88c0.13-0.28,0.24-0.55,0.34-0.82
				c0.1-0.27,0.19-0.55,0.26-0.84c0.08-0.29,0.14-0.6,0.2-0.94c0.06-0.34,0.1-0.71,0.14-1.12c0.04-0.41,0.08-0.87,0.11-1.38
				c0.03-0.51,0.06-1.08,0.08-1.72s0.05-1.35,0.07-2.14c0.02-0.76,0.04-1.56,0.05-2.38c0.01-0.82,0.02-1.65,0.02-2.49
				c0-1.67-0.01-3.35-0.05-4.89c-0.02-0.77-0.04-1.51-0.06-2.19c-0.02-0.68-0.05-1.32-0.08-1.88c-0.03-0.56-0.06-1.06-0.1-1.47
				c-0.04-0.41-0.08-0.73-0.12-0.95c-0.05-0.24-0.1-0.48-0.16-0.72c-0.06-0.23-0.12-0.46-0.18-0.69c-0.07-0.23-0.14-0.45-0.21-0.66
				c-0.08-0.22-0.16-0.43-0.24-0.63c-0.09-0.21-0.18-0.41-0.27-0.61c-0.09-0.2-0.19-0.39-0.3-0.58s-0.21-0.37-0.33-0.55
				s-0.23-0.35-0.35-0.52C43.26,8.7,43.13,8.53,43,8.37c-0.13-0.16-0.27-0.32-0.41-0.47c-0.14-0.15-0.29-0.3-0.44-0.44
				C42,7.32,41.84,7.18,41.68,7.05c-0.16-0.13-0.33-0.26-0.5-0.39s-0.34-0.24-0.52-0.36c-0.18-0.11-0.36-0.23-0.55-0.33
				c-0.19-0.11-0.38-0.21-0.58-0.3c-0.33-0.16-0.63-0.3-0.92-0.42s-0.59-0.23-0.89-0.33c-0.3-0.1-0.62-0.18-0.97-0.25
				c-0.35-0.07-0.73-0.13-1.15-0.18c-0.43-0.05-0.91-0.09-1.45-0.12c-0.55-0.03-1.16-0.06-1.86-0.08c-0.7-0.02-1.49-0.04-2.39-0.05
				s-1.9-0.03-3.02-0.04C25.44,4.18,24.16,4.17,23,4.17L23,4.17z M25.01,7.84c1.98,0,3.96,0.01,5.58,0.03
				c0.81,0.01,1.53,0.02,2.11,0.04c0.58,0.02,1.02,0.04,1.28,0.06c0.34,0.03,0.66,0.06,0.97,0.11c0.31,0.04,0.6,0.09,0.88,0.15
				c0.28,0.06,0.55,0.13,0.8,0.2c0.26,0.08,0.5,0.16,0.73,0.25c0.23,0.09,0.46,0.2,0.67,0.31s0.42,0.24,0.62,0.37
				c0.2,0.13,0.39,0.28,0.58,0.43c0.19,0.15,0.37,0.32,0.55,0.5c0.19,0.19,0.36,0.38,0.52,0.57s0.31,0.4,0.44,0.61
				c0.13,0.21,0.26,0.44,0.37,0.67c0.11,0.24,0.21,0.48,0.3,0.75s0.17,0.55,0.24,0.85s0.13,0.62,0.19,0.96
				c0.05,0.34,0.1,0.71,0.14,1.1c0.04,0.39,0.07,0.81,0.1,1.25c0.02,0.36,0.04,0.83,0.06,1.39c0.02,0.56,0.03,1.2,0.04,1.9
				c0.02,1.4,0.03,3.03,0.03,4.66c0,1.63-0.01,3.25-0.03,4.65c-0.01,0.7-0.02,1.34-0.04,1.9s-0.04,1.02-0.06,1.38
				c-0.04,0.65-0.08,1.19-0.13,1.66c-0.02,0.24-0.05,0.45-0.08,0.66c-0.03,0.21-0.06,0.4-0.1,0.58s-0.08,0.35-0.12,0.52
				c-0.04,0.17-0.09,0.33-0.15,0.49c-0.05,0.16-0.11,0.32-0.18,0.48c-0.07,0.16-0.14,0.33-0.22,0.5c-0.07,0.15-0.14,0.29-0.21,0.43
				c-0.08,0.14-0.15,0.27-0.24,0.4c-0.08,0.13-0.17,0.26-0.26,0.38c-0.09,0.12-0.19,0.24-0.28,0.36s-0.2,0.23-0.31,0.33
				c-0.11,0.11-0.22,0.21-0.33,0.31c-0.11,0.1-0.23,0.2-0.36,0.29c-0.12,0.09-0.25,0.18-0.38,0.27c-0.13,0.09-0.27,0.17-0.41,0.25
				s-0.28,0.15-0.43,0.22c-0.15,0.07-0.3,0.14-0.46,0.2c-0.16,0.06-0.32,0.12-0.49,0.18c-0.33,0.11-0.69,0.21-1.06,0.3
				c-0.37,0.09-0.76,0.16-1.17,0.22c-0.15,0.02-0.5,0.04-0.99,0.06s-1.14,0.04-1.89,0.05c-1.5,0.03-3.41,0.06-5.36,0.07
				c-1.95,0.01-3.95,0.02-5.62,0.01c-0.83,0-1.58-0.01-2.21-0.02c-0.62-0.01-1.11-0.03-1.43-0.04c-0.38-0.02-0.73-0.05-1.06-0.07
				c-0.33-0.03-0.63-0.06-0.92-0.09c-0.29-0.03-0.55-0.07-0.8-0.12c-0.25-0.04-0.48-0.09-0.71-0.15c-0.22-0.05-0.43-0.11-0.63-0.18
				c-0.2-0.07-0.39-0.14-0.58-0.22c-0.19-0.08-0.37-0.17-0.55-0.27s-0.36-0.2-0.54-0.32c-0.14-0.09-0.27-0.18-0.39-0.27
				s-0.25-0.19-0.37-0.28c-0.12-0.1-0.23-0.2-0.34-0.3c-0.11-0.1-0.21-0.21-0.31-0.32c-0.1-0.11-0.2-0.22-0.29-0.34
				s-0.18-0.24-0.26-0.36s-0.16-0.25-0.24-0.39c-0.08-0.13-0.15-0.27-0.22-0.41c-0.07-0.14-0.13-0.29-0.2-0.44
				c-0.06-0.15-0.12-0.31-0.17-0.47c-0.11-0.32-0.21-0.66-0.29-1.03c-0.08-0.37-0.16-0.75-0.22-1.17s-0.11-0.85-0.15-1.32
				c-0.03-0.34-0.05-0.88-0.07-1.55c-0.02-0.68-0.03-1.49-0.04-2.4c-0.01-1.81-0.01-3.98,0.01-6.11c0.02-2.13,0.06-4.21,0.11-5.84
				c0.02-0.82,0.05-1.52,0.08-2.06c0.01-0.27,0.03-0.5,0.05-0.68c0.02-0.18,0.03-0.32,0.05-0.4c0.06-0.27,0.11-0.51,0.17-0.74
				c0.06-0.23,0.12-0.45,0.18-0.65s0.13-0.39,0.2-0.57c0.07-0.18,0.14-0.35,0.23-0.51c0.08-0.16,0.17-0.32,0.26-0.47
				c0.09-0.15,0.2-0.3,0.31-0.45c0.11-0.15,0.23-0.29,0.36-0.44c0.13-0.15,0.27-0.3,0.42-0.45c0.18-0.19,0.37-0.36,0.55-0.51
				c0.19-0.16,0.37-0.3,0.57-0.43c0.19-0.13,0.39-0.25,0.6-0.36c0.21-0.11,0.42-0.21,0.64-0.3s0.46-0.17,0.71-0.24
				c0.25-0.07,0.51-0.13,0.8-0.19c0.28-0.06,0.58-0.1,0.9-0.15c0.32-0.04,0.66-0.08,1.02-0.11c0.25-0.02,0.69-0.04,1.27-0.06
				c0.58-0.02,1.29-0.03,2.09-0.04C21.05,7.86,23.03,7.85,25.01,7.84L25.01,7.84z"/>
		</g>
	</g>
</g>
</svg>
