<svg width="19" height="19" viewBox="0 0 19 19" fill="none" xmlns="http://www.w3.org/2000/svg">
<path d="M4.31323 18.1609V5.90701H0.240216V18.1609H4.31323ZM2.27754 4.23411C3.69752 4.23411 4.58173 3.29292 4.58173 2.11726C4.55467 0.914542 3.69752 0 2.3046 0C0.910442 0 0 0.914542 0 2.11726C0 3.29333 0.883797 4.23411 2.2509 4.23411H2.27754V4.23411ZM6.5674 18.1609H10.64V11.3184C10.64 10.9524 10.6666 10.5859 10.774 10.3248C11.0684 9.59264 11.7386 8.8351 12.8638 8.8351C14.3371 8.8351 14.927 9.95871 14.927 11.6062V18.1609H18.9996V11.1348C18.9996 7.37126 16.9905 5.61965 14.3109 5.61965C12.1137 5.61965 11.1491 6.84738 10.6129 7.68403H10.64V5.90742H6.5674C6.62069 7.05685 6.5674 18.1613 6.5674 18.1609Z" fill="white"/>
</svg>
