<svg version="1.1" class="logo" xmlns="http://www.w3.org/2000/svg" xmlns:xlink="http://www.w3.org/1999/xlink" x="0px" y="0px"
    viewBox="0 0 95.64 60" style="enable-background:new 0 0 95.64 60;" xml:space="preserve">
    <style>
        .logo {
            fill: #ffffff
        }
    </style>
    <g>
        <g>
            <path d="M9.39,0v42.82H0V0H9.39z"/>
            <path d="M14.39,16.35h9.39v14.13c0,1.86,0.34,3.28,1.01,4.25c0.67,0.98,1.9,1.47,3.69,1.47
                c1.79,0,3.02-0.49,3.69-1.47c0.67-0.98,1-2.4,1-4.25V16.35h9.39v15.94c0,7.6-4.69,11.4-14.08,11.4c-9.39,0-14.08-3.8-14.08-11.4
                V16.35z"/>
            <path d="M56.9,0v42.82h-9.39V0H56.9z"/>
            <polygon points="79.6,42.86 70.75,42.86 61.91,42.86 61.91,34.02 61.91,25.17 61.91,16.33 70.75,16.33 79.6,16.33 
                79.6,25.17 70.75,25.17 70.75,34.02 79.6,34.02 79.6,25.17 88.44,25.17 88.44,34.02 88.44,42.86 		"/>
            <g>
                <path d="M92.82,9.15c1.59,0,2.82,1.24,2.82,2.8c0,1.61-1.23,2.84-2.84,2.84c-1.61,0-2.88-1.24-2.88-2.84
                    c0-1.57,1.27-2.8,2.88-2.8H92.82z M92.79,9.65c-1.27,0-2.24,1.04-2.24,2.31c0,1.31,0.97,2.33,2.28,2.33
                    c1.25,0.02,2.21-1.02,2.21-2.31c0-1.29-0.95-2.33-2.22-2.33H92.79z M92.29,13.51h-0.55v-2.95c0.3-0.05,0.62-0.09,1.03-0.09
                    c0.49,0,0.74,0.09,0.92,0.23c0.18,0.12,0.3,0.35,0.3,0.64c0,0.35-0.26,0.58-0.56,0.69v0.03c0.25,0.11,0.39,0.34,0.48,0.72
                    c0.09,0.44,0.16,0.62,0.23,0.72h-0.56c-0.09-0.11-0.16-0.37-0.25-0.76c-0.07-0.34-0.26-0.48-0.67-0.48h-0.35V13.51z M92.29,11.85
                    h0.37c0.39,0,0.76-0.12,0.76-0.46c0-0.28-0.2-0.49-0.71-0.49c-0.21,0-0.34,0.02-0.42,0.03V11.85z"/>
            </g>
        </g>
        <g>
            <path d="M65.24,53.9c0.81,0,1.5,0.3,2.08,0.89c0.57,0.59,0.86,1.31,0.86,2.16c0,0.85-0.29,1.57-0.86,2.16
                C66.74,59.7,66.05,60,65.24,60c-0.96,0-1.69-0.38-2.19-1.15v1h-1.01v-8.12h1.01v3.32C63.55,54.28,64.28,53.9,65.24,53.9z
                M65.11,59.02c0.58,0,1.07-0.2,1.46-0.6c0.39-0.4,0.59-0.89,0.59-1.48c0-0.59-0.2-1.08-0.59-1.48c-0.39-0.4-0.88-0.6-1.46-0.6
                c-0.59,0-1.08,0.2-1.47,0.6c-0.39,0.4-0.59,0.89-0.59,1.48c0,0.59,0.2,1.08,0.59,1.48C64.03,58.83,64.52,59.02,65.11,59.02z"/>
            <path d="M74.31,54.05h1.01v5.8h-1.01v-1c-0.5,0.77-1.23,1.15-2.19,1.15c-0.81,0-1.5-0.3-2.08-0.89
                c-0.57-0.59-0.86-1.31-0.86-2.16c0-0.85,0.29-1.57,0.86-2.16c0.57-0.59,1.27-0.89,2.08-0.89c0.96,0,1.69,0.38,2.19,1.15V54.05z
                M72.25,59.02c0.59,0,1.08-0.2,1.47-0.6c0.39-0.4,0.59-0.89,0.59-1.48c0-0.59-0.2-1.08-0.59-1.48c-0.39-0.4-0.89-0.6-1.47-0.6
                c-0.58,0-1.07,0.2-1.46,0.6c-0.39,0.4-0.59,0.89-0.59,1.48c0,0.59,0.2,1.08,0.59,1.48C71.18,58.83,71.67,59.02,72.25,59.02z"/>
            <path d="M79.87,53.9c0.68,0,1.23,0.21,1.64,0.64c0.41,0.43,0.62,1.01,0.62,1.75v3.56h-1.01v-3.51
                c0-0.47-0.13-0.84-0.38-1.1c-0.26-0.26-0.61-0.39-1.06-0.39c-0.5,0-0.91,0.16-1.22,0.47c-0.31,0.31-0.46,0.79-0.46,1.44v3.08
                h-1.01v-5.8h1.01v0.84C78.4,54.22,79.03,53.9,79.87,53.9z"/>
            <path d="M88.56,59.85h-1.25l-2.65-2.75v2.75h-1.01v-8.12h1.01v4.89l2.51-2.56h1.3l-2.77,2.81L88.56,59.85z"/>
        </g>
    </g>
</svg>